<svg id="Layer_1" data-name="Layer 1" xmlns="http://www.w3.org/2000/svg" viewBox="0 0 17 17"><defs><style>.cls-1{fill:#fff;}</style></defs><title>настройка</title><rect class="cls-1" x="13.5" y="6.5" width="3" height="4" transform="translate(23.5 -6.5) rotate(90)"/><rect class="cls-1" x="0.5" y="6.5" width="3" height="4" transform="translate(10.5 6.5) rotate(90)"/><path class="cls-1" d="M8.5,3A5.5,5.5,0,1,0,14,8.5,5.5,5.5,0,0,0,8.5,3Zm0,8A2.5,2.5,0,1,1,11,8.5,2.5,2.5,0,0,1,8.5,11Z"/><rect class="cls-1" x="0.5" y="6.5" width="3" height="4" transform="translate(10.5 6.5) rotate(90)"/><rect class="cls-1" x="7" width="3" height="4"/><rect class="cls-1" x="7" y="13" width="3" height="4"/><rect class="cls-1" x="2.4" y="1.9" width="3" height="4" transform="translate(-1.62 3.9) rotate(-45)"/><rect class="cls-1" x="11.6" y="11.1" width="3" height="4" transform="translate(-5.42 13.1) rotate(-45)"/><rect class="cls-1" x="2.4" y="11.1" width="3" height="4" transform="translate(-2.6 25.12) rotate(-135)"/><rect class="cls-1" x="11.6" y="1.9" width="3" height="4" transform="translate(19.6 15.92) rotate(-135)"/></svg>